<svg xmlns="http://www.w3.org/2000/svg" width="1240" height="700" viewBox="0 0 1240 700" font-family="'Segoe UI','Helvetica Neue',Arial,sans-serif"><rect width="1240" height="700" fill="#ffffff"/><text x="620.0" y="34" text-anchor="middle" font-size="21" font-weight="800" fill="#1f2937">Greenford riverside district, 1990 and 2024</text><rect x="26" y="64" width="581.0" height="540" rx="12" fill="#f7f8f9" stroke="#c3c8ce" stroke-width="2"/><text x="316.5" y="54" text-anchor="middle" font-size="17" font-weight="800" fill="#1f2937">1990</text><rect x="633.0" y="64" width="581.0" height="540" rx="12" fill="#f7f8f9" stroke="#c3c8ce" stroke-width="2"/><text x="923.5" y="54" text-anchor="middle" font-size="17" font-weight="800" fill="#1f2937">2024</text><clipPath id="cpA"><rect x="26" y="64" width="581.0" height="540" rx="12"/></clipPath><g clip-path="url(#cpA)"><rect x="26" y="304.0" width="581.0" height="60" fill="#bcd7ea"/><path d="M46,334.0 q10,-8 20,0" fill="none" stroke="#8fb8d6" stroke-width="2"/><path d="M86,334.0 q10,-8 20,0" fill="none" stroke="#8fb8d6" stroke-width="2"/><path d="M126,334.0 q10,-8 20,0" fill="none" stroke="#8fb8d6" stroke-width="2"/><path d="M166,334.0 q10,-8 20,0" fill="none" stroke="#8fb8d6" stroke-width="2"/><path d="M206,334.0 q10,-8 20,0" fill="none" stroke="#8fb8d6" stroke-width="2"/><path d="M246,334.0 q10,-8 20,0" fill="none" stroke="#8fb8d6" stroke-width="2"/><path d="M286,334.0 q10,-8 20,0" fill="none" stroke="#8fb8d6" stroke-width="2"/><path d="M326,334.0 q10,-8 20,0" fill="none" stroke="#8fb8d6" stroke-width="2"/><path d="M366,334.0 q10,-8 20,0" fill="none" stroke="#8fb8d6" stroke-width="2"/><path d="M406,334.0 q10,-8 20,0" fill="none" stroke="#8fb8d6" stroke-width="2"/><path d="M446,334.0 q10,-8 20,0" fill="none" stroke="#8fb8d6" stroke-width="2"/><path d="M486,334.0 q10,-8 20,0" fill="none" stroke="#8fb8d6" stroke-width="2"/><path d="M526,334.0 q10,-8 20,0" fill="none" stroke="#8fb8d6" stroke-width="2"/><path d="M566,334.0 q10,-8 20,0" fill="none" stroke="#8fb8d6" stroke-width="2"/><text x="316.5" y="339.0" text-anchor="middle" font-size="12.5" font-weight="800" fill="#2c5c7a">River</text><rect x="56" y="104" width="70" height="42" fill="#ffffff" stroke="#1f2937" stroke-width="2.2"/><polygon points="52,104 91,86 130,104" fill="#9ca3af" stroke="#1f2937" stroke-width="1.8"/><rect x="144" y="104" width="70" height="42" fill="#ffffff" stroke="#1f2937" stroke-width="2.2"/><polygon points="140,104 179,86 218,104" fill="#9ca3af" stroke="#1f2937" stroke-width="1.8"/><rect x="232" y="104" width="70" height="42" fill="#ffffff" stroke="#1f2937" stroke-width="2.2"/><polygon points="228,104 267,86 306,104" fill="#9ca3af" stroke="#1f2937" stroke-width="1.8"/><rect x="320" y="104" width="70" height="42" fill="#ffffff" stroke="#1f2937" stroke-width="2.2"/><polygon points="316,104 355,86 394,104" fill="#9ca3af" stroke="#1f2937" stroke-width="1.8"/><rect x="408" y="104" width="70" height="42" fill="#ffffff" stroke="#1f2937" stroke-width="2.2"/><polygon points="404,104 443,86 482,104" fill="#9ca3af" stroke="#1f2937" stroke-width="1.8"/><rect x="496" y="104" width="70" height="42" fill="#ffffff" stroke="#1f2937" stroke-width="2.2"/><polygon points="492,104 531,86 570,104" fill="#9ca3af" stroke="#1f2937" stroke-width="1.8"/><rect x="216.5" y="156" width="200" height="20" rx="6" fill="#ffffff" opacity="0.88"/><text x="316.5" y="170.2" text-anchor="middle" font-size="11" font-weight="700" fill="#1f2937">Terraced houses (north bank)</text><rect x="46" y="394.0" width="150" height="90" fill="#d8d3c9" stroke="#6b6a63" stroke-width="2.4" stroke-dasharray="5 4"/><polygon points="56,424.0 96,424.0 91,404.0 61,404.0" fill="#a39e93"/><rect x="116" y="364.0" width="14" height="60" fill="#8f8a7f"/><rect x="46" y="488.0" width="150" height="34" rx="6" fill="#ffffff" opacity="0.88"/><text x="121.0" y="509.2" text-anchor="middle" font-size="10.5" font-weight="700" fill="#1f2937">Derelict textile factory (SW)</text><rect x="437.0" y="394.0" width="140" height="90" fill="#d7ecc7" stroke="#7fa568" stroke-width="1.8"/><circle cx="477.0" cy="434.0" r="14" fill="#8fbf75"/><circle cx="532.0" cy="449.0" r="12" fill="#8fbf75"/><rect x="432.0" y="488.0" width="150" height="34" rx="6" fill="#ffffff" opacity="0.88"/><text x="507.0" y="509.2" text-anchor="middle" font-size="10.5" font-weight="700" fill="#1f2937">Small community park (E)</text><rect x="296.5" y="304.0" width="40" height="60" fill="#d1d5db" stroke="#374151" stroke-width="2"/><rect x="241.5" y="278.0" width="150" height="20" rx="6" fill="#ffffff" opacity="0.88"/><text x="316.5" y="292.2" text-anchor="middle" font-size="10.5" font-weight="700" fill="#1f2937">Narrow road bridge</text></g><g transform="translate(577.0,88)"><circle r="16" fill="#fff" stroke="#9ca3af" stroke-width="1.5"/><path d="M0,-11 L4.5,5 L0,1 L-4.5,5 Z" fill="#374151"/><text y="-18" text-anchor="middle" font-size="10" font-weight="800" fill="#1f2937">N</text></g><clipPath id="cpB"><rect x="633.0" y="64" width="581.0" height="540" rx="12"/></clipPath><g clip-path="url(#cpB)"><rect x="633.0" y="304.0" width="581.0" height="60" fill="#bcd7ea"/><path d="M653.0,334.0 q10,-8 20,0" fill="none" stroke="#8fb8d6" stroke-width="2"/><path d="M693.0,334.0 q10,-8 20,0" fill="none" stroke="#8fb8d6" stroke-width="2"/><path d="M733.0,334.0 q10,-8 20,0" fill="none" stroke="#8fb8d6" stroke-width="2"/><path d="M773.0,334.0 q10,-8 20,0" fill="none" stroke="#8fb8d6" stroke-width="2"/><path d="M813.0,334.0 q10,-8 20,0" fill="none" stroke="#8fb8d6" stroke-width="2"/><path d="M853.0,334.0 q10,-8 20,0" fill="none" stroke="#8fb8d6" stroke-width="2"/><path d="M893.0,334.0 q10,-8 20,0" fill="none" stroke="#8fb8d6" stroke-width="2"/><path d="M933.0,334.0 q10,-8 20,0" fill="none" stroke="#8fb8d6" stroke-width="2"/><path d="M973.0,334.0 q10,-8 20,0" fill="none" stroke="#8fb8d6" stroke-width="2"/><path d="M1013.0,334.0 q10,-8 20,0" fill="none" stroke="#8fb8d6" stroke-width="2"/><path d="M1053.0,334.0 q10,-8 20,0" fill="none" stroke="#8fb8d6" stroke-width="2"/><path d="M1093.0,334.0 q10,-8 20,0" fill="none" stroke="#8fb8d6" stroke-width="2"/><path d="M1133.0,334.0 q10,-8 20,0" fill="none" stroke="#8fb8d6" stroke-width="2"/><path d="M1173.0,334.0 q10,-8 20,0" fill="none" stroke="#8fb8d6" stroke-width="2"/><text x="923.5" y="339.0" text-anchor="middle" font-size="12.5" font-weight="800" fill="#2c5c7a">River</text><rect x="663.0" y="104" width="70" height="42" fill="#fde68a" stroke="#1f2937" stroke-width="2.2"/><rect x="669.0" y="110" width="14" height="12" fill="#ffffff" stroke="#9ca3af" stroke-width="1"/><rect x="691.0" y="110" width="14" height="12" fill="#ffffff" stroke="#9ca3af" stroke-width="1"/><rect x="713.0" y="110" width="14" height="12" fill="#ffffff" stroke="#9ca3af" stroke-width="1"/><rect x="751.0" y="104" width="70" height="42" fill="#fde68a" stroke="#1f2937" stroke-width="2.2"/><rect x="757.0" y="110" width="14" height="12" fill="#ffffff" stroke="#9ca3af" stroke-width="1"/><rect x="779.0" y="110" width="14" height="12" fill="#ffffff" stroke="#9ca3af" stroke-width="1"/><rect x="801.0" y="110" width="14" height="12" fill="#ffffff" stroke="#9ca3af" stroke-width="1"/><rect x="839.0" y="104" width="70" height="42" fill="#fde68a" stroke="#1f2937" stroke-width="2.2"/><rect x="845.0" y="110" width="14" height="12" fill="#ffffff" stroke="#9ca3af" stroke-width="1"/><rect x="867.0" y="110" width="14" height="12" fill="#ffffff" stroke="#9ca3af" stroke-width="1"/><rect x="889.0" y="110" width="14" height="12" fill="#ffffff" stroke="#9ca3af" stroke-width="1"/><rect x="927.0" y="104" width="70" height="42" fill="#fde68a" stroke="#1f2937" stroke-width="2.2"/><rect x="933.0" y="110" width="14" height="12" fill="#ffffff" stroke="#9ca3af" stroke-width="1"/><rect x="955.0" y="110" width="14" height="12" fill="#ffffff" stroke="#9ca3af" stroke-width="1"/><rect x="977.0" y="110" width="14" height="12" fill="#ffffff" stroke="#9ca3af" stroke-width="1"/><rect x="1015.0" y="104" width="70" height="42" fill="#fde68a" stroke="#1f2937" stroke-width="2.2"/><rect x="1021.0" y="110" width="14" height="12" fill="#ffffff" stroke="#9ca3af" stroke-width="1"/><rect x="1043.0" y="110" width="14" height="12" fill="#ffffff" stroke="#9ca3af" stroke-width="1"/><rect x="1065.0" y="110" width="14" height="12" fill="#ffffff" stroke="#9ca3af" stroke-width="1"/><rect x="1103.0" y="104" width="70" height="42" fill="#fde68a" stroke="#1f2937" stroke-width="2.2"/><rect x="1109.0" y="110" width="14" height="12" fill="#ffffff" stroke="#9ca3af" stroke-width="1"/><rect x="1131.0" y="110" width="14" height="12" fill="#ffffff" stroke="#9ca3af" stroke-width="1"/><rect x="1153.0" y="110" width="14" height="12" fill="#ffffff" stroke="#9ca3af" stroke-width="1"/><rect x="813.5" y="156" width="220" height="20" rx="6" fill="#ffffff" opacity="0.88"/><text x="923.5" y="170.2" text-anchor="middle" font-size="11" font-weight="700" fill="#1f2937">Retrofitted mixed-use blocks</text><rect x="653.0" y="389.0" width="20" height="95" fill="#93a3b8" stroke="#1f2937" stroke-width="1.6"/><rect x="656.0" y="395.0" width="5" height="8" fill="#e5edf5"/><rect x="664.0" y="395.0" width="5" height="8" fill="#e5edf5"/><rect x="656.0" y="415.0" width="5" height="8" fill="#e5edf5"/><rect x="664.0" y="415.0" width="5" height="8" fill="#e5edf5"/><rect x="656.0" y="435.0" width="5" height="8" fill="#e5edf5"/><rect x="664.0" y="435.0" width="5" height="8" fill="#e5edf5"/><rect x="656.0" y="455.0" width="5" height="8" fill="#e5edf5"/><rect x="664.0" y="455.0" width="5" height="8" fill="#e5edf5"/><rect x="679.0" y="389.0" width="20" height="95" fill="#93a3b8" stroke="#1f2937" stroke-width="1.6"/><rect x="682.0" y="395.0" width="5" height="8" fill="#e5edf5"/><rect x="690.0" y="395.0" width="5" height="8" fill="#e5edf5"/><rect x="682.0" y="415.0" width="5" height="8" fill="#e5edf5"/><rect x="690.0" y="415.0" width="5" height="8" fill="#e5edf5"/><rect x="682.0" y="435.0" width="5" height="8" fill="#e5edf5"/><rect x="690.0" y="435.0" width="5" height="8" fill="#e5edf5"/><rect x="682.0" y="455.0" width="5" height="8" fill="#e5edf5"/><rect x="690.0" y="455.0" width="5" height="8" fill="#e5edf5"/><rect x="705.0" y="389.0" width="20" height="95" fill="#93a3b8" stroke="#1f2937" stroke-width="1.6"/><rect x="708.0" y="395.0" width="5" height="8" fill="#e5edf5"/><rect x="716.0" y="395.0" width="5" height="8" fill="#e5edf5"/><rect x="708.0" y="415.0" width="5" height="8" fill="#e5edf5"/><rect x="716.0" y="415.0" width="5" height="8" fill="#e5edf5"/><rect x="708.0" y="435.0" width="5" height="8" fill="#e5edf5"/><rect x="716.0" y="435.0" width="5" height="8" fill="#e5edf5"/><rect x="708.0" y="455.0" width="5" height="8" fill="#e5edf5"/><rect x="716.0" y="455.0" width="5" height="8" fill="#e5edf5"/><rect x="731.0" y="389.0" width="20" height="95" fill="#93a3b8" stroke="#1f2937" stroke-width="1.6"/><rect x="734.0" y="395.0" width="5" height="8" fill="#e5edf5"/><rect x="742.0" y="395.0" width="5" height="8" fill="#e5edf5"/><rect x="734.0" y="415.0" width="5" height="8" fill="#e5edf5"/><rect x="742.0" y="415.0" width="5" height="8" fill="#e5edf5"/><rect x="734.0" y="435.0" width="5" height="8" fill="#e5edf5"/><rect x="742.0" y="435.0" width="5" height="8" fill="#e5edf5"/><rect x="734.0" y="455.0" width="5" height="8" fill="#e5edf5"/><rect x="742.0" y="455.0" width="5" height="8" fill="#e5edf5"/><rect x="757.0" y="389.0" width="20" height="95" fill="#93a3b8" stroke="#1f2937" stroke-width="1.6"/><rect x="760.0" y="395.0" width="5" height="8" fill="#e5edf5"/><rect x="768.0" y="395.0" width="5" height="8" fill="#e5edf5"/><rect x="760.0" y="415.0" width="5" height="8" fill="#e5edf5"/><rect x="768.0" y="415.0" width="5" height="8" fill="#e5edf5"/><rect x="760.0" y="435.0" width="5" height="8" fill="#e5edf5"/><rect x="768.0" y="435.0" width="5" height="8" fill="#e5edf5"/><rect x="760.0" y="455.0" width="5" height="8" fill="#e5edf5"/><rect x="768.0" y="455.0" width="5" height="8" fill="#e5edf5"/><rect x="783.0" y="389.0" width="20" height="95" fill="#93a3b8" stroke="#1f2937" stroke-width="1.6"/><rect x="786.0" y="395.0" width="5" height="8" fill="#e5edf5"/><rect x="794.0" y="395.0" width="5" height="8" fill="#e5edf5"/><rect x="786.0" y="415.0" width="5" height="8" fill="#e5edf5"/><rect x="794.0" y="415.0" width="5" height="8" fill="#e5edf5"/><rect x="786.0" y="435.0" width="5" height="8" fill="#e5edf5"/><rect x="794.0" y="435.0" width="5" height="8" fill="#e5edf5"/><rect x="786.0" y="455.0" width="5" height="8" fill="#e5edf5"/><rect x="794.0" y="455.0" width="5" height="8" fill="#e5edf5"/><rect x="643.0" y="492.0" width="175" height="34" rx="6" fill="#ffffff" opacity="0.88"/><text x="730.5" y="513.2" text-anchor="middle" font-size="9.8" font-weight="700" fill="#1f2937">Six high-rise apartment towers</text><rect x="1024.0" y="384.0" width="160" height="100" fill="#c9e8b8" stroke="#6b8f5a" stroke-width="1.8"/><circle cx="1059.0" cy="419.0" r="13" fill="#8fbf75"/><circle cx="1114.0" cy="434.0" r="12" fill="#8fbf75"/><circle cx="1154.0" cy="414.0" r="11" fill="#8fbf75"/><path d="M1039.0,464.0 q65,-24 130,0" fill="none" stroke="#5c7a4c" stroke-width="2.5" stroke-dasharray="3 3"/><rect x="1019.0" y="492.0" width="175" height="34" rx="6" fill="#ffffff" opacity="0.88"/><text x="1106.5" y="513.2" text-anchor="middle" font-size="10" font-weight="700" fill="#1f2937">Enlarged riverside greenway</text><rect x="893.5" y="304.0" width="60" height="60" fill="#d1d5db" stroke="#374151" stroke-width="2"/><rect x="843.5" y="278.0" width="160" height="20" rx="6" fill="#ffffff" opacity="0.88"/><text x="923.5" y="292.2" text-anchor="middle" font-size="10.5" font-weight="700" fill="#1f2937">Widened road bridge</text><rect x="969.5" y="304.0" width="16" height="60" fill="#f3d9a4" stroke="#9c7a3c" stroke-width="1.6" stroke-dasharray="3 2"/><rect x="924.5" y="368.0" width="110" height="20" rx="6" fill="#ffffff" opacity="0.88"/><text x="979.5" y="382.2" text-anchor="middle" font-size="9.5" font-weight="700" fill="#1f2937">New footbridge</text><rect x="889.5" y="202" width="68" height="30" rx="5" fill="#6b7280" stroke="#1f2937" stroke-width="2.2"/><text x="923.5" y="222.0" text-anchor="middle" font-size="12" font-weight="800" fill="#ffffff">M</text><rect x="843.5" y="236" width="160" height="20" rx="6" fill="#ffffff" opacity="0.88"/><text x="923.5" y="250.2" text-anchor="middle" font-size="10.5" font-weight="700" fill="#1f2937">New metro station</text></g><g transform="translate(1184.0,88)"><circle r="16" fill="#fff" stroke="#9ca3af" stroke-width="1.5"/><path d="M0,-11 L4.5,5 L0,1 L-4.5,5 Z" fill="#374151"/><text y="-18" text-anchor="middle" font-size="10" font-weight="800" fill="#1f2937">N</text></g><rect x="26" y="638" width="16" height="16" fill="#93a3b8" stroke="#1f2937" stroke-width="1.5"/><text x="48" y="651" font-size="12" fill="#1f2937">High-rise towers (was factory)</text><rect x="290" y="638" width="16" height="16" fill="#fde68a" stroke="#1f2937" stroke-width="1.5"/><text x="312" y="651" font-size="12" fill="#1f2937">Retrofitted mixed-use blocks</text><rect x="560" y="638" width="16" height="16" fill="#c9e8b8" stroke="#6b8f5a" stroke-width="1.5"/><text x="582" y="651" font-size="12" fill="#1f2937">Riverside greenway (was park)</text><rect x="850" y="638" width="16" height="16" fill="#6b7280" stroke="#1f2937" stroke-width="1.5"/><text x="872" y="651" font-size="12" fill="#1f2937">New metro station</text><text x="1224" y="686" text-anchor="end" font-size="10.5" font-style="italic" fill="#4b5563">Illustrative data for teaching · IELTS Advanced</text></svg>