<svg xmlns="http://www.w3.org/2000/svg" width="1240" height="620" viewBox="0 0 1240 620" font-family="'Segoe UI', 'Helvetica Neue', Arial, sans-serif"><rect x="0" y="0" width="1240" height="620" fill="#ffffff"/><text x="620.0" y="32" text-anchor="middle" font-size="19" font-weight="700" fill="#1e293b">Health &amp; Well-being — three indicators across five countries, 2023</text><text x="620.0" y="55" text-anchor="middle" font-size="12.5" fill="#64748b">Japan, Sweden, the USA, Brazil and India</text><text x="210.0" y="94" text-anchor="middle" font-size="14" font-weight="700" fill="#1e293b">A. Adult obesity prevalence</text><text x="210.0" y="112" text-anchor="middle" font-size="11" fill="#64748b">% of population</text><line x1="20.0" y1="480.0" x2="400.0" y2="480.0" stroke="#e2e8f0" stroke-width="1"/><text x="14.0" y="484.0" text-anchor="end" font-size="10" fill="#64748b">0</text><line x1="20.0" y1="408.0" x2="400.0" y2="408.0" stroke="#e2e8f0" stroke-width="1"/><text x="14.0" y="412.0" text-anchor="end" font-size="10" fill="#64748b">9</text><line x1="20.0" y1="336.0" x2="400.0" y2="336.0" stroke="#e2e8f0" stroke-width="1"/><text x="14.0" y="340.0" text-anchor="end" font-size="10" fill="#64748b">18</text><line x1="20.0" y1="264.0" x2="400.0" y2="264.0" stroke="#e2e8f0" stroke-width="1"/><text x="14.0" y="268.0" text-anchor="end" font-size="10" fill="#64748b">27</text><line x1="20.0" y1="192.0" x2="400.0" y2="192.0" stroke="#e2e8f0" stroke-width="1"/><text x="14.0" y="196.0" text-anchor="end" font-size="10" fill="#64748b">36</text><line x1="20.0" y1="120.0" x2="400.0" y2="120.0" stroke="#e2e8f0" stroke-width="1"/><text x="14.0" y="124.0" text-anchor="end" font-size="10" fill="#64748b">45</text><line x1="20.0" y1="120" x2="20.0" y2="480" stroke="#94a3b8" stroke-width="1.3"/><line x1="20.0" y1="480" x2="400.0" y2="480" stroke="#94a3b8" stroke-width="1.3"/><rect x="38.0" y="448.0" width="40" height="32.0" rx="2" fill="#2563eb"/><text x="58.0" y="442.0" text-anchor="middle" font-size="11" font-weight="600" fill="#1e293b">4</text><text x="58.0" y="498" text-anchor="middle" font-size="10.5" fill="#1e293b">Japan</text><rect x="114.0" y="312.0" width="40" height="168.0" rx="2" fill="#059669"/><text x="134.0" y="306.0" text-anchor="middle" font-size="11" font-weight="600" fill="#1e293b">21</text><text x="134.0" y="498" text-anchor="middle" font-size="10.5" fill="#1e293b">Sweden</text><rect x="190.0" y="144.0" width="40" height="336.0" rx="2" fill="#dc2626"/><text x="210.0" y="138.0" text-anchor="middle" font-size="11" font-weight="600" fill="#1e293b">42</text><text x="210.0" y="498" text-anchor="middle" font-size="10.5" fill="#1e293b">USA</text><rect x="266.0" y="256.0" width="40" height="224.0" rx="2" fill="#d97706"/><text x="286.0" y="250.0" text-anchor="middle" font-size="11" font-weight="600" fill="#1e293b">28</text><text x="286.0" y="498" text-anchor="middle" font-size="10.5" fill="#1e293b">Brazil</text><rect x="342.0" y="432.0" width="40" height="48.0" rx="2" fill="#7c3aed"/><text x="362.0" y="426.0" text-anchor="middle" font-size="11" font-weight="600" fill="#1e293b">6</text><text x="362.0" y="498" text-anchor="middle" font-size="10.5" fill="#1e293b">India</text><text x="620.0" y="94" text-anchor="middle" font-size="14" font-weight="700" fill="#1e293b">B. Life expectancy at birth</text><text x="620.0" y="112" text-anchor="middle" font-size="11" fill="#64748b">years</text><line x1="430.0" y1="480.0" x2="810.0" y2="480.0" stroke="#e2e8f0" stroke-width="1"/><text x="424.0" y="484.0" text-anchor="end" font-size="10" fill="#64748b">0</text><line x1="430.0" y1="408.0" x2="810.0" y2="408.0" stroke="#e2e8f0" stroke-width="1"/><text x="424.0" y="412.0" text-anchor="end" font-size="10" fill="#64748b">18</text><line x1="430.0" y1="336.0" x2="810.0" y2="336.0" stroke="#e2e8f0" stroke-width="1"/><text x="424.0" y="340.0" text-anchor="end" font-size="10" fill="#64748b">36</text><line x1="430.0" y1="264.0" x2="810.0" y2="264.0" stroke="#e2e8f0" stroke-width="1"/><text x="424.0" y="268.0" text-anchor="end" font-size="10" fill="#64748b">54</text><line x1="430.0" y1="192.0" x2="810.0" y2="192.0" stroke="#e2e8f0" stroke-width="1"/><text x="424.0" y="196.0" text-anchor="end" font-size="10" fill="#64748b">72</text><line x1="430.0" y1="120.0" x2="810.0" y2="120.0" stroke="#e2e8f0" stroke-width="1"/><text x="424.0" y="124.0" text-anchor="end" font-size="10" fill="#64748b">90</text><line x1="430.0" y1="120" x2="430.0" y2="480" stroke="#94a3b8" stroke-width="1.3"/><line x1="430.0" y1="480" x2="810.0" y2="480" stroke="#94a3b8" stroke-width="1.3"/><rect x="448.0" y="144.0" width="40" height="336.0" rx="2" fill="#2563eb"/><text x="468.0" y="138.0" text-anchor="middle" font-size="11" font-weight="600" fill="#1e293b">84</text><text x="468.0" y="498" text-anchor="middle" font-size="10.5" fill="#1e293b">Japan</text><rect x="524.0" y="148.0" width="40" height="332.0" rx="2" fill="#059669"/><text x="544.0" y="142.0" text-anchor="middle" font-size="11" font-weight="600" fill="#1e293b">83</text><text x="544.0" y="498" text-anchor="middle" font-size="10.5" fill="#1e293b">Sweden</text><text x="620.0" y="470" text-anchor="middle" font-size="11" fill="#94a3b8" font-style="italic">n/a</text><text x="620.0" y="498" text-anchor="middle" font-size="10.5" fill="#1e293b">USA</text><rect x="676.0" y="176.0" width="40" height="304.0" rx="2" fill="#d97706"/><text x="696.0" y="170.0" text-anchor="middle" font-size="11" font-weight="600" fill="#1e293b">76</text><text x="696.0" y="498" text-anchor="middle" font-size="10.5" fill="#1e293b">Brazil</text><rect x="752.0" y="200.0" width="40" height="280.0" rx="2" fill="#7c3aed"/><text x="772.0" y="194.0" text-anchor="middle" font-size="11" font-weight="600" fill="#1e293b">70</text><text x="772.0" y="498" text-anchor="middle" font-size="10.5" fill="#1e293b">India</text><text x="1030.0" y="94" text-anchor="middle" font-size="14" font-weight="700" fill="#1e293b">C. Mental health disorders</text><text x="1030.0" y="112" text-anchor="middle" font-size="11" fill="#64748b">% of population</text><line x1="840.0" y1="480.0" x2="1220.0" y2="480.0" stroke="#e2e8f0" stroke-width="1"/><text x="834.0" y="484.0" text-anchor="end" font-size="10" fill="#64748b">0</text><line x1="840.0" y1="408.0" x2="1220.0" y2="408.0" stroke="#e2e8f0" stroke-width="1"/><text x="834.0" y="412.0" text-anchor="end" font-size="10" fill="#64748b">5</text><line x1="840.0" y1="336.0" x2="1220.0" y2="336.0" stroke="#e2e8f0" stroke-width="1"/><text x="834.0" y="340.0" text-anchor="end" font-size="10" fill="#64748b">10</text><line x1="840.0" y1="264.0" x2="1220.0" y2="264.0" stroke="#e2e8f0" stroke-width="1"/><text x="834.0" y="268.0" text-anchor="end" font-size="10" fill="#64748b">15</text><line x1="840.0" y1="192.0" x2="1220.0" y2="192.0" stroke="#e2e8f0" stroke-width="1"/><text x="834.0" y="196.0" text-anchor="end" font-size="10" fill="#64748b">20</text><line x1="840.0" y1="120.0" x2="1220.0" y2="120.0" stroke="#e2e8f0" stroke-width="1"/><text x="834.0" y="124.0" text-anchor="end" font-size="10" fill="#64748b">25</text><line x1="840.0" y1="120" x2="840.0" y2="480" stroke="#94a3b8" stroke-width="1.3"/><line x1="840.0" y1="480" x2="1220.0" y2="480" stroke="#94a3b8" stroke-width="1.3"/><rect x="858.0" y="364.8" width="40" height="115.2" rx="2" fill="#2563eb"/><text x="878.0" y="358.8" text-anchor="middle" font-size="11" font-weight="600" fill="#1e293b">8</text><text x="878.0" y="498" text-anchor="middle" font-size="10.5" fill="#1e293b">Japan</text><rect x="934.0" y="235.2" width="40" height="244.8" rx="2" fill="#059669"/><text x="954.0" y="229.2" text-anchor="middle" font-size="11" font-weight="600" fill="#1e293b">17</text><text x="954.0" y="498" text-anchor="middle" font-size="10.5" fill="#1e293b">Sweden</text><rect x="1010.0" y="177.6" width="40" height="302.4" rx="2" fill="#dc2626"/><text x="1030.0" y="171.6" text-anchor="middle" font-size="11" font-weight="600" fill="#1e293b">21</text><text x="1030.0" y="498" text-anchor="middle" font-size="10.5" fill="#1e293b">USA</text><rect x="1086.0" y="278.4" width="40" height="201.6" rx="2" fill="#d97706"/><text x="1106.0" y="272.4" text-anchor="middle" font-size="11" font-weight="600" fill="#1e293b">14</text><text x="1106.0" y="498" text-anchor="middle" font-size="10.5" fill="#1e293b">Brazil</text><rect x="1162.0" y="321.6" width="40" height="158.4" rx="2" fill="#7c3aed"/><text x="1182.0" y="315.6" text-anchor="middle" font-size="11" font-weight="600" fill="#1e293b">11</text><text x="1182.0" y="498" text-anchor="middle" font-size="10.5" fill="#1e293b">India</text><rect x="20.0" y="545" width="14" height="14" rx="2" fill="#2563eb"/><text x="40.0" y="557" font-size="12.5" fill="#1e293b">Japan</text><rect x="180.0" y="545" width="14" height="14" rx="2" fill="#059669"/><text x="200.0" y="557" font-size="12.5" fill="#1e293b">Sweden</text><rect x="340.0" y="545" width="14" height="14" rx="2" fill="#dc2626"/><text x="360.0" y="557" font-size="12.5" fill="#1e293b">USA</text><rect x="500.0" y="545" width="14" height="14" rx="2" fill="#d97706"/><text x="520.0" y="557" font-size="12.5" fill="#1e293b">Brazil</text><rect x="660.0" y="545" width="14" height="14" rx="2" fill="#7c3aed"/><text x="680.0" y="557" font-size="12.5" fill="#1e293b">India</text><text x="1224" y="606" text-anchor="end" font-size="10.5" fill="#64748b" font-style="italic">Illustrative data for teaching · IELTS Advanced</text></svg>