<svg xmlns="http://www.w3.org/2000/svg" viewBox="0 0 1920 1080" width="1920" height="1080">
  <defs>
    <radialGradient id="gh" cx="50%" cy="26%" r="85%"><stop offset="0%" stop-color="#0F2A3E"/><stop offset="55%" stop-color="#0A1628"/><stop offset="100%" stop-color="#070E19"/></radialGradient>
    <pattern id="ghg" width="60" height="60" patternUnits="userSpaceOnUse"><path d="M60 0 H0 V60" fill="none" stroke="#FFFFFF" stroke-opacity="0.045" stroke-width="1"/></pattern>
  </defs>
  <rect width="1920" height="1080" fill="url(#gh)"/>
  <rect width="1920" height="1080" fill="url(#ghg)"/>
  <circle cx="1740" cy="180" r="360" fill="#0F766E" opacity="0.14"/>
  <g transform="translate(880,300) scale(2.2)">
    <path d="M18 66 L48 20 L78 66" fill="none" stroke="#14B8A6" stroke-width="12" stroke-linecap="round" stroke-linejoin="round"/>
    <circle cx="48" cy="11" r="8" fill="#FBBF24"/>
  </g>
  <text x="960" y="620" text-anchor="middle" font-family="'Plus Jakarta Sans',system-ui,sans-serif" font-size="104" letter-spacing="-3"><tspan font-weight="800" fill="#fff">Aver</tspan><tspan font-weight="600" fill="#5EEAD4"> Learning</tspan></text>
  <text x="960" y="700" text-anchor="middle" font-family="'Plus Jakarta Sans',system-ui,sans-serif" font-size="42" font-weight="500" fill="rgba(255,255,255,0.82)">Luyện IELTS toàn diện cùng AI — phản hồi theo từng tiêu chí</text>
  <g font-family="'Plus Jakarta Sans',system-ui,sans-serif" font-size="34" font-weight="600" text-anchor="middle">
    <g transform="translate(960,820)">
      <rect x="-700" y="-32" width="200" height="60" rx="30" fill="rgba(255,255,255,0.1)"/><text x="-600" y="9" fill="#E2E8F0">Speaking</text>
      <rect x="-482" y="-32" width="176" height="60" rx="30" fill="rgba(255,255,255,0.1)"/><text x="-394" y="9" fill="#E2E8F0">Writing</text>
      <rect x="-288" y="-32" width="180" height="60" rx="30" fill="rgba(255,255,255,0.1)"/><text x="-198" y="9" fill="#E2E8F0">Reading</text>
      <rect x="-90" y="-32" width="200" height="60" rx="30" fill="rgba(255,255,255,0.1)"/><text x="10" y="9" fill="#E2E8F0">Listening</text>
      <rect x="128" y="-32" width="186" height="60" rx="30" fill="rgba(255,255,255,0.1)"/><text x="221" y="9" fill="#E2E8F0">Grammar</text>
      <rect x="332" y="-32" width="184" height="60" rx="30" fill="rgba(245,158,11,0.18)"/><text x="424" y="9" fill="#FBBF24">Từ vựng</text>
    </g>
  </g>
</svg>
