<svg xmlns="http://www.w3.org/2000/svg" width="1180" height="700" viewBox="0 0 1180 700" font-family="'Segoe UI','Helvetica Neue',Arial,sans-serif"><rect width="1180" height="700" fill="#ffffff"/><text x="590.0" y="34" text-anchor="middle" font-size="22" font-weight="800" fill="#1f2937">Urban population of four megacities, 1975-2025</text><text x="590.0" y="58" text-anchor="middle" font-size="14" fill="#4b5563">Population (millions) — Tokyo, Delhi, Lagos, Sao Paulo</text><line x1="90" y1="590.0" x2="1120" y2="590.0" stroke="#e5e7eb" stroke-width="1"/><text x="78" y="594.0" text-anchor="end" font-size="12" fill="#4b5563">0</text><line x1="90" y1="527.5" x2="1120" y2="527.5" stroke="#e5e7eb" stroke-width="1"/><text x="78" y="531.5" text-anchor="end" font-size="12" fill="#4b5563">5</text><line x1="90" y1="465.0" x2="1120" y2="465.0" stroke="#e5e7eb" stroke-width="1"/><text x="78" y="469.0" text-anchor="end" font-size="12" fill="#4b5563">10</text><line x1="90" y1="402.5" x2="1120" y2="402.5" stroke="#e5e7eb" stroke-width="1"/><text x="78" y="406.5" text-anchor="end" font-size="12" fill="#4b5563">15</text><line x1="90" y1="340.0" x2="1120" y2="340.0" stroke="#e5e7eb" stroke-width="1"/><text x="78" y="344.0" text-anchor="end" font-size="12" fill="#4b5563">20</text><line x1="90" y1="277.5" x2="1120" y2="277.5" stroke="#e5e7eb" stroke-width="1"/><text x="78" y="281.5" text-anchor="end" font-size="12" fill="#4b5563">25</text><line x1="90" y1="215.0" x2="1120" y2="215.0" stroke="#e5e7eb" stroke-width="1"/><text x="78" y="219.0" text-anchor="end" font-size="12" fill="#4b5563">30</text><line x1="90" y1="152.5" x2="1120" y2="152.5" stroke="#e5e7eb" stroke-width="1"/><text x="78" y="156.5" text-anchor="end" font-size="12" fill="#4b5563">35</text><line x1="90" y1="90.0" x2="1120" y2="90.0" stroke="#e5e7eb" stroke-width="1"/><text x="78" y="94.0" text-anchor="end" font-size="12" fill="#4b5563">40</text><line x1="90" y1="90" x2="90" y2="590" stroke="#374151" stroke-width="1.5"/><line x1="90" y1="590" x2="1120" y2="590" stroke="#374151" stroke-width="1.5"/><line x1="90.0" y1="590" x2="90.0" y2="596" stroke="#374151" stroke-width="1.5"/><text x="90.0" y="616" text-anchor="middle" font-size="12.5" fill="#374151">1975</text><line x1="296.0" y1="590" x2="296.0" y2="596" stroke="#374151" stroke-width="1.5"/><text x="296.0" y="616" text-anchor="middle" font-size="12.5" fill="#374151">1985</text><line x1="502.0" y1="590" x2="502.0" y2="596" stroke="#374151" stroke-width="1.5"/><text x="502.0" y="616" text-anchor="middle" font-size="12.5" fill="#374151">1995</text><line x1="708.0" y1="590" x2="708.0" y2="596" stroke="#374151" stroke-width="1.5"/><text x="708.0" y="616" text-anchor="middle" font-size="12.5" fill="#374151">2005</text><line x1="914.0" y1="590" x2="914.0" y2="596" stroke="#374151" stroke-width="1.5"/><text x="914.0" y="616" text-anchor="middle" font-size="12.5" fill="#374151">2015</text><line x1="1120.0" y1="590" x2="1120.0" y2="596" stroke="#374151" stroke-width="1.5"/><text x="1120.0" y="616" text-anchor="middle" font-size="12.5" fill="#374151">2025</text><text x="605.0" y="640" text-anchor="middle" font-size="13.5" fill="#4b5563">Year</text><path d="M90.0,257.5 L296.0,211.2 L502.0,170.0 L708.0,145.0 L914.0,113.8 L1120.0,125.0" fill="none" stroke="#2563eb" stroke-width="3"/><circle cx="90.0" cy="257.5" r="4.5" fill="#2563eb" stroke="#ffffff" stroke-width="1.5"/><circle cx="296.0" cy="211.2" r="4.5" fill="#2563eb" stroke="#ffffff" stroke-width="1.5"/><circle cx="502.0" cy="170.0" r="4.5" fill="#2563eb" stroke="#ffffff" stroke-width="1.5"/><circle cx="708.0" cy="145.0" r="4.5" fill="#2563eb" stroke="#ffffff" stroke-width="1.5"/><circle cx="914.0" cy="113.8" r="4.5" fill="#2563eb" stroke="#ffffff" stroke-width="1.5"/><circle cx="1120.0" cy="125.0" r="4.5" fill="#2563eb" stroke="#ffffff" stroke-width="1.5"/><text x="90.0" y="245.5" text-anchor="middle" font-size="11" font-weight="700" fill="#2563eb">26.6</text><text x="1128.0" y="129.0" text-anchor="start" font-size="12" font-weight="800" fill="#2563eb">37.2</text><path d="M90.0,535.0 L296.0,496.2 L502.0,435.0 L708.0,357.5 L914.0,268.8 L1120.0,167.5" fill="none" stroke="#dc2626" stroke-width="3"/><circle cx="90.0" cy="535.0" r="4.5" fill="#dc2626" stroke="#ffffff" stroke-width="1.5"/><circle cx="296.0" cy="496.2" r="4.5" fill="#dc2626" stroke="#ffffff" stroke-width="1.5"/><circle cx="502.0" cy="435.0" r="4.5" fill="#dc2626" stroke="#ffffff" stroke-width="1.5"/><circle cx="708.0" cy="357.5" r="4.5" fill="#dc2626" stroke="#ffffff" stroke-width="1.5"/><circle cx="914.0" cy="268.8" r="4.5" fill="#dc2626" stroke="#ffffff" stroke-width="1.5"/><circle cx="1120.0" cy="167.5" r="4.5" fill="#dc2626" stroke="#ffffff" stroke-width="1.5"/><text x="90.0" y="523.0" text-anchor="middle" font-size="11" font-weight="700" fill="#dc2626">4.4</text><text x="1128.0" y="171.5" text-anchor="start" font-size="12" font-weight="800" fill="#dc2626">33.8</text><path d="M90.0,456.2 L296.0,421.2 L502.0,385.0 L708.0,355.0 L914.0,330.0 L1120.0,310.0" fill="none" stroke="#d97706" stroke-width="3"/><circle cx="90.0" cy="456.2" r="4.5" fill="#d97706" stroke="#ffffff" stroke-width="1.5"/><circle cx="296.0" cy="421.2" r="4.5" fill="#d97706" stroke="#ffffff" stroke-width="1.5"/><circle cx="502.0" cy="385.0" r="4.5" fill="#d97706" stroke="#ffffff" stroke-width="1.5"/><circle cx="708.0" cy="355.0" r="4.5" fill="#d97706" stroke="#ffffff" stroke-width="1.5"/><circle cx="914.0" cy="330.0" r="4.5" fill="#d97706" stroke="#ffffff" stroke-width="1.5"/><circle cx="1120.0" cy="310.0" r="4.5" fill="#d97706" stroke="#ffffff" stroke-width="1.5"/><text x="90.0" y="444.2" text-anchor="middle" font-size="11" font-weight="700" fill="#d97706">10.7</text><text x="1128.0" y="314.0" text-anchor="start" font-size="12" font-weight="800" fill="#d97706">22.4</text><path d="M90.0,566.2 L296.0,546.2 L502.0,503.8 L708.0,457.5 L914.0,393.8 L1120.0,327.5" fill="none" stroke="#059669" stroke-width="3"/><circle cx="90.0" cy="566.2" r="4.5" fill="#059669" stroke="#ffffff" stroke-width="1.5"/><circle cx="296.0" cy="546.2" r="4.5" fill="#059669" stroke="#ffffff" stroke-width="1.5"/><circle cx="502.0" cy="503.8" r="4.5" fill="#059669" stroke="#ffffff" stroke-width="1.5"/><circle cx="708.0" cy="457.5" r="4.5" fill="#059669" stroke="#ffffff" stroke-width="1.5"/><circle cx="914.0" cy="393.8" r="4.5" fill="#059669" stroke="#ffffff" stroke-width="1.5"/><circle cx="1120.0" cy="327.5" r="4.5" fill="#059669" stroke="#ffffff" stroke-width="1.5"/><text x="90.0" y="554.2" text-anchor="middle" font-size="11" font-weight="700" fill="#059669">1.9</text><text x="1128.0" y="331.5" text-anchor="start" font-size="12" font-weight="800" fill="#059669">21.0</text><text x="914.0" y="99.8" text-anchor="middle" font-size="11" font-weight="700" fill="#2563eb">peak 38.1</text><line x1="110" y1="668" x2="138" y2="668" stroke="#2563eb" stroke-width="4"/><circle cx="124" cy="668" r="4.5" fill="#2563eb" stroke="#ffffff" stroke-width="1.5"/><text x="146" y="672" font-size="13" font-weight="600" fill="#1f2937">Tokyo</text><line x1="360" y1="668" x2="388" y2="668" stroke="#dc2626" stroke-width="4"/><circle cx="374" cy="668" r="4.5" fill="#dc2626" stroke="#ffffff" stroke-width="1.5"/><text x="396" y="672" font-size="13" font-weight="600" fill="#1f2937">Delhi</text><line x1="610" y1="668" x2="638" y2="668" stroke="#059669" stroke-width="4"/><circle cx="624" cy="668" r="4.5" fill="#059669" stroke="#ffffff" stroke-width="1.5"/><text x="646" y="672" font-size="13" font-weight="600" fill="#1f2937">Lagos</text><line x1="860" y1="668" x2="888" y2="668" stroke="#d97706" stroke-width="4"/><circle cx="874" cy="668" r="4.5" fill="#d97706" stroke="#ffffff" stroke-width="1.5"/><text x="896" y="672" font-size="13" font-weight="600" fill="#1f2937">Sao Paulo</text><text x="1164" y="686" text-anchor="end" font-size="10.5" font-style="italic" fill="#4b5563">Illustrative data for teaching · IELTS Advanced</text></svg>