<svg xmlns="http://www.w3.org/2000/svg" width="1180" height="560" viewBox="0 0 1180 560" font-family="'Segoe UI', 'Helvetica Neue', Arial, sans-serif">
<rect x="0" y="0" width="1180" height="560" fill="#ffffff"/>
<text x="590.0" y="30" text-anchor="middle" font-size="17" font-weight="700" fill="#1e293b">Proportion of materials used to manufacture clothing globally, 1990, 2010 and 2024</text>
<text x="590.0" y="53" text-anchor="middle" font-size="12.5" fill="#64748b">% of global fabric mix</text>

<text x="212.4" y="164" text-anchor="middle" font-size="15" font-weight="700" fill="#1e293b">1990</text>
<path d="M212.4,300 L212.4,180.0 A120,120 0 0 1 219.9,419.8 Z" fill="#2563eb" stroke="#ffffff" stroke-width="2"/>
<text x="286.8" y="297.7" text-anchor="middle" font-size="12" font-weight="700" fill="#fff">49%</text>
<path d="M212.4,300 L219.9,419.8 A120,120 0 0 1 98.3,337.1 Z" fill="#dc2626" stroke="#ffffff" stroke-width="2"/>
<text x="170.6" y="361.5" text-anchor="middle" font-size="12" font-weight="700" fill="#fff">21%</text>
<path d="M212.4,300 L98.3,337.1 A120,120 0 0 1 103.8,248.9 Z" fill="#059669" stroke="#ffffff" stroke-width="2"/>
<text x="138.1" y="295.3" text-anchor="middle" font-size="11.5" font-weight="700" fill="#fff">12%</text>
<path d="M212.4,300 L103.8,248.9 A120,120 0 0 1 154.6,194.8 Z" fill="#0891b2" stroke="#ffffff" stroke-width="2"/>
<text x="158.2" y="249.1" text-anchor="middle" font-size="11.5" font-weight="700" fill="#fff">10%</text>
<path d="M212.4,300 L154.6,194.8 A120,120 0 0 1 212.4,180.0 Z" fill="#d97706" stroke="#ffffff" stroke-width="2"/>
<text x="193.9" y="227.9" text-anchor="middle" font-size="11" font-weight="700" fill="#fff">8%</text>
<text x="212.4" y="440" text-anchor="middle" font-size="11" fill="#64748b">(natural fibres ~71% combined)</text>

<text x="590.0" y="164" text-anchor="middle" font-size="15" font-weight="700" fill="#1e293b">2010</text>
<path d="M590.0,300 L590.0,180.0 A120,120 0 0 1 695.2,357.8 Z" fill="#2563eb" stroke="#ffffff" stroke-width="2"/>
<text x="654.0" y="262.1" text-anchor="middle" font-size="12" font-weight="700" fill="#fff">33%</text>
<path d="M590.0,300 L695.2,357.8 A120,120 0 0 1 473.8,329.8 Z" fill="#dc2626" stroke="#ffffff" stroke-width="2"/>
<text x="580.7" y="373.8" text-anchor="middle" font-size="12" font-weight="700" fill="#fff">38%</text>
<path d="M590.0,300 L473.8,329.8 A120,120 0 0 1 492.9,229.5 Z" fill="#d97706" stroke="#ffffff" stroke-width="2"/>
<text x="516.9" y="286.1" text-anchor="middle" font-size="11.5" font-weight="700" fill="#fff">14%</text>
<path d="M590.0,300 L492.9,229.5 A120,120 0 0 1 538.9,191.4 Z" fill="#059669" stroke="#ffffff" stroke-width="2"/>
<text x="542.6" y="242.7" text-anchor="middle" font-size="10.5" font-weight="700" fill="#fff">~8%</text>
<path d="M590.0,300 L538.9,191.4 A120,120 0 0 1 590.0,180.0 Z" fill="#0891b2" stroke="#ffffff" stroke-width="2"/>
<text x="573.8" y="227.4" text-anchor="middle" font-size="10.5" font-weight="700" fill="#fff">~7%</text>

<text x="967.6" y="164" text-anchor="middle" font-size="15" font-weight="700" fill="#1e293b">2024</text>
<path d="M967.6,300 L967.6,180.0 A120,120 0 1 1 937.8,416.2 Z" fill="#dc2626" stroke="#ffffff" stroke-width="2"/>
<text x="1041.4" y="309.3" text-anchor="middle" font-size="12" font-weight="700" fill="#fff">54%</text>
<path d="M967.6,300 L937.8,416.2 A120,120 0 0 1 847.8,292.5 Z" fill="#2563eb" stroke="#ffffff" stroke-width="2"/>
<text x="907.4" y="343.7" text-anchor="middle" font-size="12" font-weight="700" fill="#fff">22%</text>
<path d="M967.6,300 L847.8,292.5 A120,120 0 0 1 909.8,194.8 Z" fill="#d97706" stroke="#ffffff" stroke-width="2"/>
<text x="904.8" y="260.1" text-anchor="middle" font-size="11.5" font-weight="700" fill="#fff">16%</text>
<path d="M967.6,300 L909.8,194.8 A120,120 0 0 1 945.1,182.1 Z" fill="#7c3aed" stroke="#ffffff" stroke-width="2"/>
<text x="942.4" y="230.0" text-anchor="middle" font-size="11" font-weight="700" fill="#fff">5%</text>
<path d="M967.6,300 L945.1,182.1 A120,120 0 0 1 967.6,180.0 Z" fill="#059669" stroke="#ffffff" stroke-width="2"/>
<text x="975.0" y="200.0" text-anchor="middle" font-size="10.5" font-weight="700" fill="#1e293b">3%</text>

<rect x="270.0" y="493" width="14" height="14" rx="2" fill="#2563eb"/>
<text x="290.0" y="505" font-size="12" fill="#1e293b">Cotton</text>
<rect x="360.0" y="493" width="14" height="14" rx="2" fill="#dc2626"/>
<text x="380.0" y="505" font-size="12" fill="#1e293b">Polyester</text>
<rect x="470.0" y="493" width="14" height="14" rx="2" fill="#059669"/>
<text x="490.0" y="505" font-size="12" fill="#1e293b">Wool</text>
<rect x="550.0" y="493" width="14" height="14" rx="2" fill="#d97706"/>
<text x="570.0" y="505" font-size="12" fill="#1e293b">Other synthetic fibres</text>
<rect x="730.0" y="493" width="14" height="14" rx="2" fill="#7c3aed"/>
<text x="750.0" y="505" font-size="12" fill="#1e293b">Recycled blends</text>
<rect x="900.0" y="493" width="14" height="14" rx="2" fill="#0891b2"/>
<text x="920.0" y="505" font-size="12" fill="#1e293b">Other natural fibres</text>

<text x="1166" y="548" text-anchor="end" font-size="10.5" fill="#64748b" font-style="italic">Illustrative data for teaching · IELTS Advanced (2010 wool/other-natural approximated per source note)</text>
</svg>
