<svg xmlns="http://www.w3.org/2000/svg" width="1180" height="700" viewBox="0 0 1180 700" font-family="'Segoe UI','Helvetica Neue',Arial,sans-serif"><rect width="1180" height="700" fill="#ffffff"/><text x="590.0" y="34" text-anchor="middle" font-size="22" font-weight="800" fill="#1f2937">CO2 emissions per capita: USA, Germany, China and India, 1970-2020</text><text x="590.0" y="58" text-anchor="middle" font-size="14" fill="#4b5563">Tonnes per person</text><line x1="90" y1="590.0" x2="1120" y2="590.0" stroke="#e5e7eb" stroke-width="1"/><text x="78" y="594.0" text-anchor="end" font-size="12" fill="#4b5563">0</text><line x1="90" y1="544.5" x2="1120" y2="544.5" stroke="#e5e7eb" stroke-width="1"/><text x="78" y="548.5" text-anchor="end" font-size="12" fill="#4b5563">2</text><line x1="90" y1="499.1" x2="1120" y2="499.1" stroke="#e5e7eb" stroke-width="1"/><text x="78" y="503.1" text-anchor="end" font-size="12" fill="#4b5563">4</text><line x1="90" y1="453.6" x2="1120" y2="453.6" stroke="#e5e7eb" stroke-width="1"/><text x="78" y="457.6" text-anchor="end" font-size="12" fill="#4b5563">6</text><line x1="90" y1="408.2" x2="1120" y2="408.2" stroke="#e5e7eb" stroke-width="1"/><text x="78" y="412.2" text-anchor="end" font-size="12" fill="#4b5563">8</text><line x1="90" y1="362.7" x2="1120" y2="362.7" stroke="#e5e7eb" stroke-width="1"/><text x="78" y="366.7" text-anchor="end" font-size="12" fill="#4b5563">10</text><line x1="90" y1="317.3" x2="1120" y2="317.3" stroke="#e5e7eb" stroke-width="1"/><text x="78" y="321.3" text-anchor="end" font-size="12" fill="#4b5563">12</text><line x1="90" y1="271.8" x2="1120" y2="271.8" stroke="#e5e7eb" stroke-width="1"/><text x="78" y="275.8" text-anchor="end" font-size="12" fill="#4b5563">14</text><line x1="90" y1="226.4" x2="1120" y2="226.4" stroke="#e5e7eb" stroke-width="1"/><text x="78" y="230.4" text-anchor="end" font-size="12" fill="#4b5563">16</text><line x1="90" y1="180.9" x2="1120" y2="180.9" stroke="#e5e7eb" stroke-width="1"/><text x="78" y="184.9" text-anchor="end" font-size="12" fill="#4b5563">18</text><line x1="90" y1="135.5" x2="1120" y2="135.5" stroke="#e5e7eb" stroke-width="1"/><text x="78" y="139.5" text-anchor="end" font-size="12" fill="#4b5563">20</text><line x1="90" y1="90.0" x2="1120" y2="90.0" stroke="#e5e7eb" stroke-width="1"/><text x="78" y="94.0" text-anchor="end" font-size="12" fill="#4b5563">22</text><line x1="90" y1="90" x2="90" y2="590" stroke="#374151" stroke-width="1.5"/><line x1="90" y1="590" x2="1120" y2="590" stroke="#374151" stroke-width="1.5"/><line x1="90.0" y1="590" x2="90.0" y2="596" stroke="#374151" stroke-width="1.5"/><text x="90.0" y="616" text-anchor="middle" font-size="12.5" fill="#374151">1970</text><line x1="296.0" y1="590" x2="296.0" y2="596" stroke="#374151" stroke-width="1.5"/><text x="296.0" y="616" text-anchor="middle" font-size="12.5" fill="#374151">1980</text><line x1="502.0" y1="590" x2="502.0" y2="596" stroke="#374151" stroke-width="1.5"/><text x="502.0" y="616" text-anchor="middle" font-size="12.5" fill="#374151">1990</text><line x1="708.0" y1="590" x2="708.0" y2="596" stroke="#374151" stroke-width="1.5"/><text x="708.0" y="616" text-anchor="middle" font-size="12.5" fill="#374151">2000</text><line x1="914.0" y1="590" x2="914.0" y2="596" stroke="#374151" stroke-width="1.5"/><text x="914.0" y="616" text-anchor="middle" font-size="12.5" fill="#374151">2010</text><line x1="1120.0" y1="590" x2="1120.0" y2="596" stroke="#374151" stroke-width="1.5"/><text x="1120.0" y="616" text-anchor="middle" font-size="12.5" fill="#374151">2020</text><text x="605.0" y="640" text-anchor="middle" font-size="13.5" fill="#4b5563">Year</text><path d="M90.0,112.7 L296.0,124.1 L502.0,146.8 L708.0,135.5 L914.0,192.3 L1120.0,267.3" fill="none" stroke="#dc2626" stroke-width="3"/><circle cx="90.0" cy="112.7" r="4.5" fill="#dc2626" stroke="#ffffff" stroke-width="1.5"/><circle cx="296.0" cy="124.1" r="4.5" fill="#dc2626" stroke="#ffffff" stroke-width="1.5"/><circle cx="502.0" cy="146.8" r="4.5" fill="#dc2626" stroke="#ffffff" stroke-width="1.5"/><circle cx="708.0" cy="135.5" r="4.5" fill="#dc2626" stroke="#ffffff" stroke-width="1.5"/><circle cx="914.0" cy="192.3" r="4.5" fill="#dc2626" stroke="#ffffff" stroke-width="1.5"/><circle cx="1120.0" cy="267.3" r="4.5" fill="#dc2626" stroke="#ffffff" stroke-width="1.5"/><text x="90.0" y="102.0" text-anchor="middle" font-size="11" font-weight="700" fill="#dc2626">21.0</text><text x="1128.0" y="271.3" text-anchor="start" font-size="12" font-weight="800" fill="#dc2626">14.2</text><path d="M90.0,283.2 L296.0,299.1 L502.0,328.6 L708.0,358.2 L914.0,385.5 L1120.0,415.0" fill="none" stroke="#2563eb" stroke-width="3"/><circle cx="90.0" cy="283.2" r="4.5" fill="#2563eb" stroke="#ffffff" stroke-width="1.5"/><circle cx="296.0" cy="299.1" r="4.5" fill="#2563eb" stroke="#ffffff" stroke-width="1.5"/><circle cx="502.0" cy="328.6" r="4.5" fill="#2563eb" stroke="#ffffff" stroke-width="1.5"/><circle cx="708.0" cy="358.2" r="4.5" fill="#2563eb" stroke="#ffffff" stroke-width="1.5"/><circle cx="914.0" cy="385.5" r="4.5" fill="#2563eb" stroke="#ffffff" stroke-width="1.5"/><circle cx="1120.0" cy="415.0" r="4.5" fill="#2563eb" stroke="#ffffff" stroke-width="1.5"/><text x="90.0" y="271.2" text-anchor="middle" font-size="11" font-weight="700" fill="#2563eb">13.5</text><text x="1128.0" y="419.0" text-anchor="start" font-size="12" font-weight="800" fill="#2563eb">7.7</text><path d="M90.0,569.5 L296.0,555.9 L502.0,542.3 L708.0,528.6 L914.0,453.6 L1120.0,421.8" fill="none" stroke="#059669" stroke-width="3"/><circle cx="90.0" cy="569.5" r="4.5" fill="#059669" stroke="#ffffff" stroke-width="1.5"/><circle cx="296.0" cy="555.9" r="4.5" fill="#059669" stroke="#ffffff" stroke-width="1.5"/><circle cx="502.0" cy="542.3" r="4.5" fill="#059669" stroke="#ffffff" stroke-width="1.5"/><circle cx="708.0" cy="528.6" r="4.5" fill="#059669" stroke="#ffffff" stroke-width="1.5"/><circle cx="914.0" cy="453.6" r="4.5" fill="#059669" stroke="#ffffff" stroke-width="1.5"/><circle cx="1120.0" cy="421.8" r="4.5" fill="#059669" stroke="#ffffff" stroke-width="1.5"/><text x="90.0" y="557.5" text-anchor="middle" font-size="11" font-weight="700" fill="#059669">0.9</text><text x="1128.0" y="425.8" text-anchor="start" font-size="12" font-weight="800" fill="#059669">7.4</text><path d="M90.0,580.9 L296.0,578.6 L502.0,574.1 L708.0,569.5 L914.0,558.2 L1120.0,546.8" fill="none" stroke="#d97706" stroke-width="3"/><circle cx="90.0" cy="580.9" r="4.5" fill="#d97706" stroke="#ffffff" stroke-width="1.5"/><circle cx="296.0" cy="578.6" r="4.5" fill="#d97706" stroke="#ffffff" stroke-width="1.5"/><circle cx="502.0" cy="574.1" r="4.5" fill="#d97706" stroke="#ffffff" stroke-width="1.5"/><circle cx="708.0" cy="569.5" r="4.5" fill="#d97706" stroke="#ffffff" stroke-width="1.5"/><circle cx="914.0" cy="558.2" r="4.5" fill="#d97706" stroke="#ffffff" stroke-width="1.5"/><circle cx="1120.0" cy="546.8" r="4.5" fill="#d97706" stroke="#ffffff" stroke-width="1.5"/><text x="90.0" y="568.9" text-anchor="middle" font-size="11" font-weight="700" fill="#d97706">0.4</text><text x="1128.0" y="550.8" text-anchor="start" font-size="12" font-weight="800" fill="#d97706">1.9</text><line x1="110" y1="668" x2="138" y2="668" stroke="#dc2626" stroke-width="4"/><circle cx="124" cy="668" r="4.5" fill="#dc2626" stroke="#ffffff" stroke-width="1.5"/><text x="146" y="672" font-size="13" font-weight="600" fill="#1f2937">United States</text><line x1="360" y1="668" x2="388" y2="668" stroke="#2563eb" stroke-width="4"/><circle cx="374" cy="668" r="4.5" fill="#2563eb" stroke="#ffffff" stroke-width="1.5"/><text x="396" y="672" font-size="13" font-weight="600" fill="#1f2937">Germany</text><line x1="610" y1="668" x2="638" y2="668" stroke="#059669" stroke-width="4"/><circle cx="624" cy="668" r="4.5" fill="#059669" stroke="#ffffff" stroke-width="1.5"/><text x="646" y="672" font-size="13" font-weight="600" fill="#1f2937">China</text><line x1="860" y1="668" x2="888" y2="668" stroke="#d97706" stroke-width="4"/><circle cx="874" cy="668" r="4.5" fill="#d97706" stroke="#ffffff" stroke-width="1.5"/><text x="896" y="672" font-size="13" font-weight="600" fill="#1f2937">India</text><text x="1164" y="686" text-anchor="end" font-size="10.5" font-style="italic" fill="#4b5563">Illustrative data for teaching · IELTS Advanced</text></svg>