<svg xmlns="http://www.w3.org/2000/svg" width="1180" height="560" viewBox="0 0 1180 560" font-family="'Segoe UI', 'Helvetica Neue', Arial, sans-serif">
<rect x="0" y="0" width="1180" height="560" fill="#ffffff"/>
<text x="590.0" y="30" text-anchor="middle" font-size="17" font-weight="700" fill="#1e293b">Distribution of the world's population by region, 1900, 1950 and 2000</text>
<text x="590.0" y="53" text-anchor="middle" font-size="12.5" fill="#64748b">% of world population</text>

<text x="212.4" y="164" text-anchor="middle" font-size="15" font-weight="700" fill="#1e293b">1900</text>
<path d="M212.4,300 L212.4,180.0 A120,120 0 1 1 161.3,408.6 Z" fill="#2563eb" stroke="#ffffff" stroke-width="2"/>
<text x="285.0" y="316.2" text-anchor="middle" font-size="12.5" font-weight="700" fill="#fff">57%</text>
<path d="M212.4,300 L161.3,408.6 A120,120 0 0 1 103.8,248.9 Z" fill="#dc2626" stroke="#ffffff" stroke-width="2"/>
<text x="142.4" y="325.2" text-anchor="middle" font-size="12.5" font-weight="700" fill="#fff">25%</text>
<path d="M212.4,300 L103.8,248.9 A120,120 0 0 1 148.1,198.7 Z" fill="#059669" stroke="#ffffff" stroke-width="2"/>
<text x="156.6" y="250.8" text-anchor="middle" font-size="12.5" font-weight="700" fill="#fff">9%</text>
<path d="M212.4,300 L148.1,198.7 A120,120 0 0 1 204.9,180.2 Z" fill="#d97706" stroke="#ffffff" stroke-width="2"/>
<text x="189.4" y="229.2" text-anchor="middle" font-size="12.5" font-weight="700" fill="#fff">8%</text>
<path d="M212.4,300 L204.9,180.2 A120,120 0 0 1 212.4,180.0 Z" fill="#7c3aed" stroke="#ffffff" stroke-width="2"/>
<text x="222.0" y="197.0" text-anchor="middle" font-size="11" font-weight="700" fill="#1e293b">1%</text>

<text x="590.0" y="164" text-anchor="middle" font-size="15" font-weight="700" fill="#1e293b">1950</text>
<path d="M590.0,300 L590.0,180.0 A120,120 0 1 1 538.9,408.6 Z" fill="#2563eb" stroke="#ffffff" stroke-width="2"/>
<text x="662.6" y="316.2" text-anchor="middle" font-size="12.5" font-weight="700" fill="#fff">57%</text>
<path d="M590.0,300 L538.9,408.6 A120,120 0 0 1 473.8,270.2 Z" fill="#dc2626" stroke="#ffffff" stroke-width="2"/>
<text x="522.7" y="331.7" text-anchor="middle" font-size="12.5" font-weight="700" fill="#fff">22%</text>
<path d="M590.0,300 L473.8,270.2 A120,120 0 0 1 532.2,194.8 Z" fill="#059669" stroke="#ffffff" stroke-width="2"/>
<text x="531.2" y="254.4" text-anchor="middle" font-size="12.5" font-weight="700" fill="#fff">13%</text>
<path d="M590.0,300 L532.2,194.8 A120,120 0 0 1 582.5,180.2 Z" fill="#d97706" stroke="#ffffff" stroke-width="2"/>
<text x="569.2" y="228.6" text-anchor="middle" font-size="11.5" font-weight="700" fill="#fff">~8%</text>
<path d="M590.0,300 L582.5,180.2 A120,120 0 0 1 590.0,180.0 Z" fill="#7c3aed" stroke="#ffffff" stroke-width="2"/>
<text x="600.0" y="197.0" text-anchor="middle" font-size="11" font-weight="700" fill="#1e293b">1%</text>

<text x="967.6" y="164" text-anchor="middle" font-size="15" font-weight="700" fill="#1e293b">2000</text>
<path d="M967.6,300 L967.6,180.0 A120,120 0 1 1 897.1,397.1 Z" fill="#2563eb" stroke="#ffffff" stroke-width="2"/>
<text x="1038.4" y="323.0" text-anchor="middle" font-size="12.5" font-weight="700" fill="#fff">60%</text>
<path d="M967.6,300 L897.1,397.1 A120,120 0 0 1 849.7,322.5 Z" fill="#dc2626" stroke="#ffffff" stroke-width="2"/>
<text x="904.8" y="339.9" text-anchor="middle" font-size="12.5" font-weight="700" fill="#fff">12%</text>
<path d="M967.6,300 L849.7,322.5 A120,120 0 0 1 875.1,223.5 Z" fill="#059669" stroke="#ffffff" stroke-width="2"/>
<text x="895.5" y="281.5" text-anchor="middle" font-size="12.5" font-weight="700" fill="#fff">14%</text>
<path d="M967.6,300 L875.1,223.5 A120,120 0 0 1 960.1,180.2 Z" fill="#d97706" stroke="#ffffff" stroke-width="2"/>
<text x="933.8" y="233.7" text-anchor="middle" font-size="12.5" font-weight="700" fill="#fff">13%</text>
<path d="M967.6,300 L960.1,180.2 A120,120 0 0 1 967.6,180.0 Z" fill="#7c3aed" stroke="#ffffff" stroke-width="2"/>
<text x="977.0" y="197.0" text-anchor="middle" font-size="11" font-weight="700" fill="#1e293b">1%</text>

<rect x="380.0" y="493" width="14" height="14" rx="2" fill="#2563eb"/>
<text x="400.0" y="505" font-size="12" fill="#1e293b">Asia</text>
<rect x="450.0" y="493" width="14" height="14" rx="2" fill="#dc2626"/>
<text x="470.0" y="505" font-size="12" fill="#1e293b">Europe</text>
<rect x="540.0" y="493" width="14" height="14" rx="2" fill="#059669"/>
<text x="560.0" y="505" font-size="12" fill="#1e293b">Americas</text>
<rect x="650.0" y="493" width="14" height="14" rx="2" fill="#d97706"/>
<text x="670.0" y="505" font-size="12" fill="#1e293b">Africa</text>
<rect x="740.0" y="493" width="14" height="14" rx="2" fill="#7c3aed"/>
<text x="760.0" y="505" font-size="12" fill="#1e293b">Oceania</text>

<text x="1166" y="548" text-anchor="end" font-size="10.5" fill="#64748b" font-style="italic">Illustrative data for teaching · IELTS Advanced (1950 Asia/Africa approximated per source note)</text>
</svg>
